<svg width="150px" height="50px" viewBox="0 0 1336 341" fill="none" xmlns="http://www.w3.org/2000/svg">
<path d="M396.577 136.576L367.489 203.776H352.129L323.137 136.576H339.937L360.385 184.576L381.121 136.576H396.577Z" fill="#E9983E"/>
<path d="M444.193 189.376H412.993L407.041 203.776H391.105L421.057 136.576H436.417L466.465 203.776H450.145L444.193 189.376ZM439.297 177.568L428.641 151.84L417.985 177.568H439.297Z" fill="#E9983E"/>
<path d="M473.437 136.576H488.989V191.104H522.685V203.776H473.437V136.576Z" fill="#E9983E"/>
<path d="M583.407 191.296V203.776H531.375V136.576H582.159V149.056H546.831V163.648H578.031V175.744H546.831V191.296H583.407Z" fill="#E9983E"/>
<path d="M620.474 204.352C615.482 204.352 610.682 203.552 606.074 201.952C601.53 200.352 598.01 198.24 595.514 195.616L598.298 190.144C600.73 192.576 603.962 194.56 607.994 196.096C612.026 197.568 616.186 198.304 620.474 198.304C626.49 198.304 631.002 197.216 634.01 195.04C637.018 192.8 638.522 189.92 638.522 186.4C638.522 183.712 637.69 181.568 636.026 179.968C634.426 178.368 632.442 177.152 630.074 176.32C627.706 175.424 624.41 174.464 620.186 173.44C615.13 172.16 611.098 170.944 608.09 169.792C605.082 168.576 602.49 166.752 600.314 164.32C598.202 161.888 597.146 158.592 597.146 154.432C597.146 151.04 598.042 147.968 599.834 145.216C601.626 142.4 604.378 140.16 608.09 138.496C611.802 136.832 616.41 136 621.914 136C625.754 136 629.498 136.544 633.146 137.632C636.858 138.656 640.058 140.096 642.746 141.952L640.346 147.616C637.53 145.76 634.522 144.384 631.322 143.488C628.122 142.528 624.986 142.048 621.914 142.048C616.026 142.048 611.578 143.2 608.57 145.504C605.626 147.744 604.154 150.656 604.154 154.24C604.154 156.928 604.954 159.104 606.554 160.768C608.218 162.368 610.266 163.616 612.698 164.512C615.194 165.344 618.522 166.272 622.682 167.296C627.61 168.512 631.578 169.728 634.586 170.944C637.658 172.096 640.25 173.888 642.362 176.32C644.474 178.688 645.53 181.92 645.53 186.016C645.53 189.408 644.602 192.512 642.746 195.328C640.954 198.08 638.17 200.288 634.394 201.952C630.618 203.552 625.978 204.352 620.474 204.352Z" fill="#3F8E86"/>
<path d="M661.008 136.576H668.112V203.776H661.008V136.576Z" fill="#3F8E86"/>
<path d="M689.977 136.576H717.337C724.441 136.576 730.713 138.016 736.153 140.896C741.593 143.712 745.817 147.68 748.825 152.8C751.833 157.856 753.337 163.648 753.337 170.176C753.337 176.704 751.833 182.528 748.825 187.648C745.817 192.704 741.593 196.672 736.153 199.552C730.713 202.368 724.441 203.776 717.337 203.776H689.977V136.576ZM716.953 197.632C722.841 197.632 727.993 196.48 732.409 194.176C736.825 191.808 740.249 188.576 742.681 184.48C745.113 180.32 746.329 175.552 746.329 170.176C746.329 164.8 745.113 160.064 742.681 155.968C740.249 151.808 736.825 148.576 732.409 146.272C727.993 143.904 722.841 142.72 716.953 142.72H697.081V197.632H716.953Z" fill="#3F8E86"/>
<path d="M816.809 197.632V203.776H769.289V136.576H815.369V142.72H776.393V166.624H811.145V172.672H776.393V197.632H816.809Z" fill="#3F8E86"/>
<path d="M872 136.576H881.6V195.424H917.984V203.776H872V136.576Z" fill="#4E4E4E"/>
<path d="M929 136.576H938.6V203.776H929V136.576Z" fill="#4E4E4E"/>
<path d="M1021.02 203.776L1020.93 154.816L996.639 195.616H992.223L967.935 155.104V203.776H958.719V136.576H966.591L994.623 183.808L1022.27 136.576H1030.14L1030.24 203.776H1021.02Z" fill="#4E4E4E"/>
<path d="M1050.41 136.576H1060.01V203.776H1050.41V136.576Z" fill="#4E4E4E"/>
<path d="M1093.47 144.928H1070.43V136.576H1126.01V144.928H1102.97V203.776H1093.47V144.928Z" fill="#4E4E4E"/>
<path d="M1185.24 195.424V203.776H1136.47V136.576H1183.89V144.928H1146.07V165.568H1179.76V173.728H1146.07V195.424H1185.24Z" fill="#4E4E4E"/>
<path d="M1200.78 136.576H1229.1C1236.21 136.576 1242.51 137.984 1248.01 140.8C1253.52 143.616 1257.77 147.584 1260.78 152.704C1263.85 157.76 1265.39 163.584 1265.39 170.176C1265.39 176.768 1263.85 182.624 1260.78 187.744C1257.77 192.8 1253.52 196.736 1248.01 199.552C1242.51 202.368 1236.21 203.776 1229.1 203.776H1200.78V136.576ZM1228.53 195.424C1233.97 195.424 1238.73 194.368 1242.83 192.256C1246.99 190.144 1250.19 187.2 1252.43 183.424C1254.67 179.584 1255.79 175.168 1255.79 170.176C1255.79 165.184 1254.67 160.8 1252.43 157.024C1250.19 153.184 1246.99 150.208 1242.83 148.096C1238.73 145.984 1233.97 144.928 1228.53 144.928H1210.38V195.424H1228.53Z" fill="#4E4E4E"/>
<rect x="72" y="117" width="128" height="128" rx="18" stroke="#FACF08" stroke-width="4"/>
<rect x="127" y="65" width="128" height="128" rx="18" stroke="#E9983E" stroke-width="4"/>
<rect x="153" y="147" width="128" height="128" rx="18" stroke="#3F8E86" stroke-width="4"/>
</svg>
